<?xml version="1.0"?>
<!DOCTYPE svg PUBLIC "-//W3C//DTD SVG 1.1//EN" "http://www.w3.org/Graphics/SVG/1.1/DTD/svg11.dtd">
<svg version='1.1' width='421px' height='172px' xmlns='http://www.w3.org/2000/svg' xmlns:xlink='http://www.w3.org/1999/xlink'>
	<g transform="translate(1.275,-54.1034)">
		<path d="M 527.8 390.8 Q 599.901 361.065 629.2 351.675 Q 658.494 342.281 642.125 363.3 Q 626.636 383.192 573.525 432.575 Q 520.427 481.96 551.875 470.25 Q 576.946 460.91 627.05 433 Q 686.816 399.697 747.45 390 Q 767.634 386.697 748.8 400.9 Q 716.079 425.532 703.6 454.7 Q 697.558 468.829 717.95 460 Q 815.023 417.919 847.35 412.2 Q 875.27 407.261 865.95 421.425 Q 856.631 435.59 842.175 447.975 Q 827.719 460.354 817.35 474.725 Q 806.978 489.101 819.4 488.65 Q 825.59 488.434 833.875 486.9 Q 859.593 482.133 916.5 482.4" transform="translate(-513.15,-278.75) scale(1,1.00002)" fill="none" stroke-width="31.85" stroke-linejoin="round" stroke-linecap="round" stroke="#EA1C2D"/>
	</g>
</svg>
